#!OML:ASF X:\für Bonn\!DataBase\2005_08_12_Daniel\c3d\Daniel.ASF
:FULLY-SPECIFIED
:DEGREES
131
root -4.48292 17.171 -2.11616 249.4 -85.0597 -259.834
lowerback 13.5573 -3.38529 -5.74856
upperback 5.50008 -5.60292 -3.14546
thorax -1.55431 -2.96782 0.746442
lowerneck 9.93984 4.89546 -4.1663
upperneck 18.0364 5.07776 1.33606
head 4.09991 1.84732 1.14751
rclavicle -1.78906e-014 3.57812e-015
rhumerus -27.7112 12.2931 -87.883
rradius 60.5873
rwrist 2.43516
rhand -29.1629 31.7551
rfingers 7.12502
rthumb -2.50908 1.7901
lclavicle -1.78906e-014 3.57812e-015
lhumerus -24.5731 -3.58872 77.3069
lradius 105.515
lwrist 31.2164
lhand -7.16664 -5.86523
lfingers 7.12502
lthumb 18.7105 23.2549
rfemur 0.445073 8.19498 11.1545
rtibia 29.948
rfoot -24.7078 -12.5039
rtoes -13.1872
lfemur -1.80723 -14.6525 -27.9107
ltibia 33.7289
lfoot -29.4645 14.5638
ltoes 4.77122
132
root -4.50098 17.1757 -2.17021 249.989 -84.9546 -260.296
lowerback 13.2693 -3.26641 -5.7457
upperback 5.4287 -5.42206 -3.19113
thorax -1.48849 -2.87546 0.655945
lowerneck 9.92122 4.85449 -4.14393
upperneck 17.976 5.03943 1.31189
head 4.08305 1.83458 1.13526
rclavicle -3.83157e-014 1.19271e-014
rhumerus -27.3093 11.9273 -88.2287
rradius 58.959
rwrist 2.71972
rhand -29.0709 31.4717
rfingers 7.12502
rthumb -2.42021 1.50564
lclavicle -3.83157e-014 1.19271e-014
lhumerus -26.0393 -2.98503 77.5749
lradius 103.241
lwrist 30.7369
lhand -6.94769 -5.1692
lfingers 7.12502
lthumb 18.9211 23.9305
rfemur 0.65439 8.87927 11.5085
rtibia 29.6622
rfoot -25.1767 -13.2994
rtoes -13.2614
lfemur -1.78987 -14.7147 -27.8351
ltibia 33.5667
lfoot -29.3925 14.6843
ltoes 4.48686
133
root -4.51914 17.1813 -2.22633 250.584 -84.8874 -260.744
lowerback 12.988 -3.16064 -5.76109
upperback 5.34217 -5.25872 -3.19089
thorax -1.43438 -2.79109 0.627433
lowerneck 9.85081 4.83086 -4.12611
upperneck 17.9755 5.02648 1.27119
head 4.09728 1.83137 1.12065
rclavicle -2.60905e-014 -2.38542e-014
rhumerus -27.0143 11.5545 -88.5318
rradius 57.4148
rwrist 2.99017
rhand -28.9785 31.2323
rfingers 7.12502
rthumb -2.33094 1.26528
lclavicle -2.60905e-014 -2.38542e-014
lhumerus -27.4521 -2.32459 77.8651
lradius 100.863
lwrist 30.2022
lhand -6.89797 -4.50081
lfingers 7.12502
lthumb 18.9689 24.5942
rfemur 0.831446 9.69704 11.9432
rtibia 29.429
rfoot -25.7547 -14.1193
rtoes -13.1256
lfemur -1.81786 -14.6848 -27.6689
ltibia 33.4255
lfoot -29.2669 14.6918
ltoes 4.25931
134
root -4.53619 17.1854 -2.28418 251.533 -84.8367 -261.579
lowerback 12.7656 -3.07083 -5.7851
upperback 5.26398 -5.12256 -3.18819
thorax -1.40067 -2.72038 0.614231
lowerneck 9.74422 4.79919 -4.08421
upperneck 17.9886 5.01103 1.19314
head 4.12475 1.82702 1.09062
rclavicle -4.27884e-014 -1.55052e-014
rhumerus -26.7492 11.1423 -88.8218
rradius 55.8823
rwrist 3.2243
rhand -28.8663 31.0329
rfingers 7.12502
rthumb -2.22257 1.06477
lclavicle -4.27884e-014 -1.55052e-014
lhumerus -28.776 -1.60944 78.1636
lradius 98.411
lwrist 29.6615
lhand -7.08068 -3.72061
lfingers 7.12502
lthumb 18.7932 25.3915
rfemur 1.03717 10.6621 12.4423
rtibia 29.2521
rfoot -26.5067 -15.013
rtoes -12.7937
lfemur -1.8325 -14.6152 -27.477
ltibia 33.305
lfoot -29.1302 14.6082
ltoes 4.03309
135
root -4.55365 17.1891 -2.34292 252.371 -84.7957 -262.307
lowerback 12.5443 -2.97401 -5.79683
upperback 5.19619 -4.97638 -3.19831
thorax -1.3593 -2.64519 0.580034
lowerneck 9.58762 4.74834 -3.93928
upperneck 18.0038 4.9864 1.07355
head 4.16568 1.8243 1.03051
rclavicle 3.98066e-014 1.59028e-015
rhumerus -26.5504 10.5754 -89.1178
rradius 54.3984
rwrist 3.55749
rhand -28.7108 30.8148
rfingers 7.12502
rthumb -2.07243 0.845143
lclavicle 3.98066e-014 1.59028e-015
lhumerus -29.9584 -0.895892 78.4509
lradius 95.8427
lwrist 29.0713
lhand -7.45117 -2.897
lfingers 7.12502
lthumb 18.4369 26.2493
rfemur 1.22661 11.7417 12.9841
rtibia 29.1239
rfoot -27.2678 -15.96
rtoes -12.3539
lfemur -1.87943 -14.469 -27.2467
ltibia 33.2263
lfoot -28.9508 14.4832
ltoes 3.79724
136
root -4.57032 17.1915 -2.40227 253.244 -84.8071 -263.08
lowerback 12.3479 -2.88917 -5.77182
upperback 5.12985 -4.84272 -3.18877
thorax -1.33039 -2.5755 0.549741
lowerneck 9.41999 4.70428 -3.8046
upperneck 18.026 4.96762 0.976607
head 4.21029 1.82433 0.980064
rclavicle 6.92765e-014 3.29983e-014
rhumerus -26.4148 10.0353 -89.387
rradius 52.9845
rwrist 3.69526
rhand -28.5012 30.5855
rfingers 7.12502
rthumb -1.86995 0.613903
lclavicle 6.92765e-014 3.29983e-014
lhumerus -31.0682 -0.138911 78.7081
lradius 93.2472
lwrist 28.4846
lhand -7.98009 -1.95239
lfingers 7.12502
lthumb 17.928 27.2413
rfemur 1.40256 12.8619 13.6097
rtibia 29.0627
rfoot -28.128 -16.9191
rtoes -12.0163
lfemur -1.94998 -14.2865 -26.9388
ltibia 33.1913
lfoot -28.7885 14.2807
ltoes 3.52016
137
root -4.58578 17.1921 -2.46112 254.208 -84.8453 -263.94
lowerback 12.1668 -2.81133 -5.72769
upperback 5.06191 -4.71668 -3.16278
thorax -1.31105 -2.50905 0.528408
lowerneck 9.2224 4.65431 -3.66057
upperneck 18.0758 4.94469 0.855765
head 4.27177 1.82113 0.921126
rclavicle 6.17226e-014 2.82274e-014
rhumerus -26.2928 9.44352 -89.6424
rradius 51.4933
rwrist 3.84101
rhand -28.2892 30.3808
rfingers 7.12502
rthumb -1.66521 0.407574
lclavicle 6.17226e-014 2.82274e-014
lhumerus -32.058 0.640466 78.9388
lradius 90.6001
lwrist 27.8621
lhand -8.68606 -0.878305
lfingers 7.12502
lthumb 17.2486 28.3762
rfemur 1.55128 14.0506 14.2851
rtibia 29.0616
rfoot -29.0891 -17.9067
rtoes -11.6154
lfemur -2.08095 -13.9709 -26.5595
ltibia 33.2172
lfoot -28.5859 13.9189
ltoes 3.27121
138
root -4.60048 17.1912 -2.51996 255.388 -84.9185 -265.032
lowerback 11.9985 -2.74481 -5.64604
upperback 5.00481 -4.6028 -3.14372
thorax -1.29014 -2.44867 0.48145
lowerneck 9.04738 4.60067 -3.46925
upperneck 18.1059 4.91943 0.723497
head 4.32348 1.81984 0.849279
rclavicle -9.88954e-015 -2.50469e-014
rhumerus -26.1977 8.79962 -89.911
rradius 49.9756
rwrist 3.9021
rhand -28.0577 30.2197
rfingers 7.12502
rthumb -1.44162 0.244786
lclavicle -9.88954e-015 -2.50469e-014
lhumerus -32.9408 1.48592 79.1008
lradius 87.8894
lwrist 27.2178
lhand -9.48937 0.23436
lfingers 7.12502
lthumb 16.4753 29.5548
rfemur 1.68583 15.1952 14.9959
rtibia 29.1197
rfoot -30.0793 -18.8693
rtoes -11.2268
lfemur -2.24105 -13.5711 -26.1214
ltibia 33.3075
lfoot -28.3376 13.4578
ltoes 2.92389
139
root -4.61507 17.1868 -2.57851 256.368 -85.0067 -265.941
lowerback 11.8431 -2.67261 -5.54708
upperback 4.96231 -4.48059 -3.11809
thorax -1.26183 -2.38473 0.4313
lowerneck 8.92255 4.53695 -3.293
upperneck 18.0391 4.8836 0.568914
head 4.33034 1.8151 0.769638
rclavicle -2.78795e-014 -1.51076e-014
rhumerus -26.084 8.11519 -90.1709
rradius 48.4314
rwrist 3.95269
rhand -27.8448 30.0294
rfingers 7.12502
rthumb -1.23598 0.0532001
lclavicle -2.78795e-014 -1.51076e-014
lhumerus -33.7007 2.43923 79.233
lradius 85.1312
lwrist 26.4784
lhand -10.3069 1.44899
lfingers 7.12502
lthumb 15.6881 30.833
rfemur 1.82056 16.408 15.7522
rtibia 29.2306
rfoot -31.1651 -19.8276
rtoes -10.8502
lfemur -2.41826 -13.0714 -25.6429
ltibia 33.4555
lfoot -28.0865 12.9051
ltoes 2.65317
140
root -4.62812 17.1819 -2.63485 257.786 -85.1402 -267.295
lowerback 11.7141 -2.62695 -5.41299
upperback 4.92084 -4.39065 -3.06668
thorax -1.24562 -2.33612 0.394007
lowerneck 8.81326 4.49597 -3.1516
upperneck 17.9455 4.87408 0.429415
head 4.32265 1.82234 0.700381
rclavicle 6.90777e-014 2.66371e-014
rhumerus -25.9815 7.48304 -90.398
rradius 46.8809
rwrist 3.95467
rhand -27.6676 29.8032
rfingers 7.12502
rthumb -1.06483 -0.17384
lclavicle 6.90777e-014 2.66371e-014
lhumerus -34.405 3.53656 79.3296
lradius 82.3254
lwrist 25.6208
lhand -11.1013 2.60132
lfingers 7.12502
lthumb 14.9229 32.0438
rfemur 1.93616 17.4767 16.5173
rtibia 29.3827
rfoot -32.27 -20.7109
rtoes -10.6655
lfemur -2.6287 -12.5833 -25.1195
ltibia 33.6577
lfoot -27.8733 12.2981
ltoes 2.33902
141
root -4.64063 17.1754 -2.68999 259.129 -85.2554 -268.574
lowerback 11.5858 -2.57249 -5.27074
upperback 4.88396 -4.28993 -3.03963
thorax -1.22765 -2.28235 0.325803
lowerneck 8.72517 4.44355 -2.98705
upperneck 17.796 4.85181 0.288624
head 4.29105 1.82688 0.625517
rclavicle 3.77691e-015 -2.3059e-014
rhumerus -25.8778 6.79733 -90.6374
rradius 45.2763
rwrist 3.92328
rhand -27.501 29.6071
rfingers 7.12502
rthumb -0.903984 -0.370768
lclavicle 3.77691e-015 -2.3059e-014
lhumerus -35.0193 4.70351 79.3324
lradius 79.4428
lwrist 24.7011
lhand -11.8861 3.58407
lfingers 7.12502
lthumb 14.1667 33.081
rfemur 2.04073 18.5547 17.2598
rtibia 29.5713
rfoot -33.4246 -21.4872
rtoes -10.2706
lfemur -2.86522 -12.0744 -24.612
ltibia 33.8996
lfoot -27.6811 11.6695
ltoes 2.00642
142
root -4.65252 17.1668 -2.74267 260.684 -85.393 -270.105
lowerback 11.4998 -2.52831 -5.10419
upperback 4.86123 -4.20352 -3.00272
thorax -1.21795 -2.23585 0.258054
lowerneck 8.69168 4.38031 -2.79875
upperneck 17.5739 4.82182 0.0900812
head 4.22503 1.82908 0.525251
rclavicle 3.8117e-014 2.06736e-014
rhumerus -25.7611 6.16817 -90.8521
rradius 43.6047
rwrist 3.90429
rhand -27.4002 29.4592
rfingers 7.12502
rthumb -0.806636 -0.51897
lclavicle 3.8117e-014 2.06736e-014
lhumerus -35.5949 5.98395 79.2781
lradius 76.5284
lwrist 23.703
lhand -12.6494 4.28573
lfingers 7.12502
lthumb 13.4312 33.8327
rfemur 2.14909 19.4676 17.989
rtibia 29.7927
rfoot -34.4923 -22.1451
rtoes -9.87482
lfemur -3.08324 -11.5373 -24.084
ltibia 34.1789
lfoot -27.4876 10.9751
ltoes 1.77109
